<svg width="24" height="24" viewBox="0 0 24 24" fill="none" xmlns="http://www.w3.org/2000/svg">
<path d="M2.5008 10.5599L11.5008 15.7599C11.6528 15.8477 11.8253 15.8939 12.0008 15.8939C12.1763 15.8939 12.3488 15.8477 12.5008 15.7599L21.5008 10.5599C21.6523 10.472 21.7781 10.3459 21.8656 10.1941C21.953 10.0423 21.999 9.87014 21.999 9.69495C21.999 9.51976 21.953 9.34764 21.8656 9.19583C21.7781 9.04402 21.6523 8.91785 21.5008 8.82995L12.5008 3.62995C12.3488 3.54218 12.1763 3.49597 12.0008 3.49597C11.8253 3.49597 11.6528 3.54218 11.5008 3.62995L2.5008 8.82995C2.34927 8.91785 2.22348 9.04402 2.13604 9.19583C2.0486 9.34764 2.00258 9.51976 2.00258 9.69495C2.00258 9.87014 2.0486 10.0423 2.13604 10.1941C2.22348 10.3459 2.34927 10.472 2.5008 10.5599ZM12.0008 5.64995L19.0008 9.64995L12.0008 13.6999L5.0008 9.68995L12.0008 5.64995ZM20.5008 13.4399L12.0008 18.3499L3.5008 13.4399C3.38727 13.3734 3.26171 13.3299 3.13134 13.312C3.00097 13.2941 2.86835 13.3021 2.74107 13.3356C2.6138 13.369 2.49438 13.4272 2.38965 13.5069C2.28493 13.5866 2.19697 13.6862 2.1308 13.7999C2.06469 13.9141 2.0218 14.0402 2.00462 14.1709C1.98743 14.3017 1.99629 14.4346 2.03068 14.562C2.06507 14.6893 2.12432 14.8086 2.205 14.9129C2.28569 15.0173 2.38622 15.1046 2.5008 15.1699L11.5008 20.3699C11.6528 20.4577 11.8253 20.5039 12.0008 20.5039C12.1763 20.5039 12.3488 20.4577 12.5008 20.3699L21.5008 15.1699C21.6154 15.1046 21.7159 15.0173 21.7966 14.9129C21.8773 14.8086 21.9365 14.6893 21.9709 14.562C22.0053 14.4346 22.0142 14.3017 21.997 14.1709C21.9798 14.0402 21.9369 13.9141 21.8708 13.7999C21.8046 13.6862 21.7167 13.5866 21.612 13.5069C21.5072 13.4272 21.3878 13.369 21.2605 13.3356C21.1333 13.3021 21.0006 13.2941 20.8703 13.312C20.7399 13.3299 20.6143 13.3734 20.5008 13.4399Z" fill="#242424"/>
</svg>
